<?xml version="1.0" encoding="us-ascii" standalone="no"?><svg xmlns="http://www.w3.org/2000/svg" xmlns:xlink="http://www.w3.org/1999/xlink" contentStyleType="text/css" height="697px" preserveAspectRatio="none" style="width:873px;height:697px;background:#FFFFFF;" version="1.1" viewBox="0 0 873 697" width="873px" zoomAndPan="magnify"><defs/><g><rect fill="none" height="20.9531" style="stroke:none;stroke-width:1.0;" width="840.5" x="15" y="12.7451"/><rect fill="#90EE90" height="673.0771" style="stroke:#90EE90;stroke-width:1.0;" width="262" x="15" y="12.7451"/><rect fill="#F1F1F1" height="47.9375" rx="12.5" ry="12.5" style="stroke:#181818;stroke-width:0.5;" width="252" x="21" y="420.2681"/><text fill="#000000" font-family="sans-serif" font-size="12" lengthAdjust="spacing" textLength="232" x="31" y="441.4067">&#1055;&#1086;&#1083;&#1091;&#1095;&#1077;&#1085;&#1080;&#1077; &#1079;&#1072;&#1076;&#1072;&#1085;&#1080;&#1103; &#1085;&#1072; &#1087;&#1086;&#1076;&#1087;&#1080;&#1089;&#1072;&#1085;&#1080;&#1077;</text><text fill="#000000" font-family="sans-serif" font-size="12" lengthAdjust="spacing" textLength="117" x="88.5" y="455.3755">&#1080;&#1083;&#1080; &#1091;&#1090;&#1074;&#1077;&#1088;&#1078;&#1076;&#1077;&#1085;&#1080;&#1077;</text><line style="stroke:#000000;stroke-width:1.5;" x1="15" x2="15" y1="12.7451" y2="685.8223"/><rect fill="#ADD8E6" height="673.0771" style="stroke:#ADD8E6;stroke-width:1.0;" width="274" x="277" y="12.7451"/><rect fill="#F1F1F1" height="33.9688" rx="12.5" ry="12.5" style="stroke:#181818;stroke-width:0.5;" width="264" x="283" y="212.1045"/><text fill="#000000" font-family="sans-serif" font-size="12" lengthAdjust="spacing" textLength="244" x="293" y="233.2432">&#1055;&#1086;&#1083;&#1091;&#1095;&#1077;&#1085;&#1080;&#1077; &#1079;&#1072;&#1076;&#1072;&#1085;&#1080;&#1081; &#1085;&#1072; &#1089;&#1086;&#1075;&#1083;&#1072;&#1089;&#1086;&#1074;&#1072;&#1085;&#1080;&#1077;</text><line style="stroke:#000000;stroke-width:1.5;" x1="277" x2="277" y1="12.7451" y2="685.8223"/><rect fill="#FFA500" height="673.0771" style="stroke:#FFA500;stroke-width:1.0;" width="302.5" x="551" y="12.7451"/><rect fill="#D3D3D3" height="47.9375" rx="12.5" ry="12.5" style="stroke:#181818;stroke-width:0.5;" width="236" x="572.5" y="38.6982"/><text fill="#000000" font-family="sans-serif" font-size="12" font-weight="bold" lengthAdjust="spacing" textLength="123" x="629" y="59.8369">&#1042;&#1074;&#1086;&#1076; &#1076;&#1086;&#1082;&#1091;&#1084;&#1077;&#1085;&#1090;&#1072;,</text><text fill="#000000" font-family="sans-serif" font-size="12" font-weight="bold" lengthAdjust="spacing" textLength="216" x="582.5" y="73.8057">&#1087;&#1086;&#1076;&#1075;&#1086;&#1090;&#1086;&#1074;&#1082;&#1072; &#1092;&#1072;&#1081;&#1083;&#1072; &#1076;&#1086;&#1082;&#1091;&#1084;&#1077;&#1085;&#1090;&#1072;</text><rect fill="#F1F1F1" height="33.9688" rx="12.5" ry="12.5" style="stroke:#181818;stroke-width:0.5;" width="199" x="591" y="150.6357"/><text fill="#000000" font-family="sans-serif" font-size="12" lengthAdjust="spacing" textLength="179" x="601" y="171.7744">&#1054;&#1090;&#1087;&#1088;&#1072;&#1074;&#1082;&#1072; &#1085;&#1072; &#1089;&#1086;&#1075;&#1083;&#1072;&#1089;&#1086;&#1074;&#1072;&#1085;&#1080;&#1077;</text><polygon fill="#F1F1F1" points="690.5,106.6357,702.5,118.6357,690.5,130.6357,678.5,118.6357,690.5,106.6357" style="stroke:#181818;stroke-width:0.5;"/><polygon fill="#F1F1F1" points="578,266.0732,803,266.0732,815,278.0732,803,290.0732,578,290.0732,566,278.0732,578,266.0732" style="stroke:#181818;stroke-width:0.5;"/><text fill="#000000" font-family="sans-serif" font-size="11" lengthAdjust="spacing" textLength="17" x="694.5" y="300.2837">&#1044;&#1040;</text><text fill="#000000" font-family="sans-serif" font-size="11" lengthAdjust="spacing" textLength="225" x="578" y="281.8813">&#1055;&#1086;&#1083;&#1091;&#1095;&#1077;&#1085;&#1099; &#1074;&#1089;&#1077; &#1089;&#1086;&#1075;&#1083;&#1072;&#1089;&#1091;&#1102;&#1097;&#1080;&#1077; &#1087;&#1086;&#1076;&#1087;&#1080;&#1089;&#1080;?</text><text fill="#000000" font-family="sans-serif" font-size="11" lengthAdjust="spacing" textLength="22" x="815" y="275.479">&#1053;&#1045;&#1058;</text><rect fill="#F1F1F1" height="33.9688" rx="12.5" ry="12.5" style="stroke:#181818;stroke-width:0.5;" width="188" x="596.5" y="365.7837"/><text fill="#000000" font-family="sans-serif" font-size="12" lengthAdjust="spacing" textLength="168" x="606.5" y="386.9224">&#1054;&#1090;&#1087;&#1088;&#1072;&#1074;&#1082;&#1072; &#1085;&#1072; &#1087;&#1086;&#1076;&#1087;&#1080;&#1089;&#1072;&#1085;&#1080;&#1077;</text><polygon fill="#F1F1F1" points="690.5,321.7837,702.5,333.7837,690.5,345.7837,678.5,333.7837,690.5,321.7837" style="stroke:#181818;stroke-width:0.5;"/><polygon fill="#F1F1F1" points="628,488.2056,753,488.2056,765,500.2056,753,512.2056,628,512.2056,616,500.2056,628,488.2056" style="stroke:#181818;stroke-width:0.5;"/><text fill="#000000" font-family="sans-serif" font-size="11" lengthAdjust="spacing" textLength="17" x="694.5" y="522.416">&#1044;&#1040;</text><text fill="#000000" font-family="sans-serif" font-size="11" lengthAdjust="spacing" textLength="125" x="628" y="504.0137">&#1044;&#1086;&#1082;&#1091;&#1084;&#1077;&#1085;&#1090; &#1087;&#1086;&#1076;&#1087;&#1080;&#1089;&#1072;&#1085;?</text><text fill="#000000" font-family="sans-serif" font-size="11" lengthAdjust="spacing" textLength="22" x="765" y="497.6113">&#1053;&#1045;&#1058;</text><rect fill="#F1F1F1" height="33.9688" rx="12.5" ry="12.5" style="stroke:#181818;stroke-width:0.5;" width="188" x="596.5" y="543.916"/><text fill="#000000" font-family="sans-serif" font-size="12" lengthAdjust="spacing" textLength="168" x="606.5" y="565.0547">&#1053;&#1072;&#1079;&#1085;&#1072;&#1095;&#1080;&#1090;&#1100; &#1076;&#1077;&#1081;&#1089;&#1090;&#1074;&#1091;&#1102;&#1097;&#1080;&#1084;</text><rect fill="#F1F1F1" height="33.9688" rx="12.5" ry="12.5" style="stroke:#181818;stroke-width:0.5;" width="246" x="567.5" y="597.8848"/><text fill="#000000" font-family="sans-serif" font-size="12" lengthAdjust="spacing" textLength="226" x="577.5" y="619.0234">&#1054;&#1088;&#1075;&#1072;&#1085;&#1080;&#1079;&#1072;&#1094;&#1080;&#1103; &#1088;&#1072;&#1073;&#1086;&#1090; &#1087;&#1086; &#1076;&#1086;&#1082;&#1091;&#1084;&#1077;&#1085;&#1090;&#1091;</text><rect fill="#D3D3D3" height="33.9688" rx="12.5" ry="12.5" style="stroke:#181818;stroke-width:0.5;" width="223" x="579" y="651.8535"/><text fill="#000000" font-family="sans-serif" font-size="12" font-weight="bold" lengthAdjust="spacing" textLength="203" x="589" y="672.9922">&#1055;&#1077;&#1088;&#1077;&#1074;&#1086;&#1076; &#1076;&#1086;&#1082;&#1091;&#1084;&#1077;&#1085;&#1090;&#1072; &#1074; &#1072;&#1088;&#1093;&#1080;&#1074;</text><line style="stroke:#000000;stroke-width:1.5;" x1="551" x2="551" y1="12.7451" y2="685.8223"/><line style="stroke:#000000;stroke-width:1.5;" x1="853.5" x2="853.5" y1="12.7451" y2="685.8223"/><line style="stroke:#181818;stroke-width:1.0;" x1="690.5" x2="690.5" y1="130.6357" y2="150.6357"/><polygon fill="#181818" points="686.5,140.6357,690.5,150.6357,694.5,140.6357,690.5,144.6357" style="stroke:#181818;stroke-width:1.0;"/><line style="stroke:#181818;stroke-width:1.0;" x1="815" x2="834.5" y1="278.0732" y2="278.0732"/><polygon fill="#181818" points="830.5,204.6045,834.5,194.6045,838.5,204.6045,834.5,200.6045" style="stroke:#181818;stroke-width:1.0;"/><line style="stroke:#181818;stroke-width:1.0;" x1="834.5" x2="834.5" y1="118.6357" y2="278.0732"/><line style="stroke:#181818;stroke-width:1.0;" x1="834.5" x2="702.5" y1="118.6357" y2="118.6357"/><polygon fill="#181818" points="712.5,114.6357,702.5,118.6357,712.5,122.6357,708.5,118.6357" style="stroke:#181818;stroke-width:1.0;"/><line style="stroke:#181818;stroke-width:1.0;" x1="690.5" x2="690.5" y1="86.6357" y2="106.6357"/><polygon fill="#181818" points="686.5,96.6357,690.5,106.6357,694.5,96.6357,690.5,100.6357" style="stroke:#181818;stroke-width:1.0;"/><line style="stroke:#181818;stroke-width:1.0;" x1="690.5" x2="690.5" y1="345.7837" y2="365.7837"/><polygon fill="#181818" points="686.5,355.7837,690.5,365.7837,694.5,355.7837,690.5,359.7837" style="stroke:#181818;stroke-width:1.0;"/><line style="stroke:#181818;stroke-width:1.0;" x1="765" x2="828.5" y1="500.2056" y2="500.2056"/><polygon fill="#181818" points="824.5,419.7524,828.5,409.7524,832.5,419.7524,828.5,415.7524" style="stroke:#181818;stroke-width:1.0;"/><line style="stroke:#181818;stroke-width:1.0;" x1="828.5" x2="828.5" y1="333.7837" y2="500.2056"/><line style="stroke:#181818;stroke-width:1.0;" x1="828.5" x2="702.5" y1="333.7837" y2="333.7837"/><polygon fill="#181818" points="712.5,329.7837,702.5,333.7837,712.5,337.7837,708.5,333.7837" style="stroke:#181818;stroke-width:1.0;"/><line style="stroke:#181818;stroke-width:1.0;" x1="690.5" x2="690.5" y1="290.0732" y2="321.7837"/><polygon fill="#181818" points="686.5,311.7837,690.5,321.7837,694.5,311.7837,690.5,315.7837" style="stroke:#181818;stroke-width:1.0;"/><line style="stroke:#181818;stroke-width:1.0;" x1="690.5" x2="690.5" y1="512.2056" y2="543.916"/><polygon fill="#181818" points="686.5,533.916,690.5,543.916,694.5,533.916,690.5,537.916" style="stroke:#181818;stroke-width:1.0;"/><line style="stroke:#181818;stroke-width:1.0;" x1="690.5" x2="690.5" y1="577.8848" y2="597.8848"/><polygon fill="#181818" points="686.5,587.8848,690.5,597.8848,694.5,587.8848,690.5,591.8848" style="stroke:#181818;stroke-width:1.0;"/><line style="stroke:#181818;stroke-width:1.0;" x1="690.5" x2="690.5" y1="631.8535" y2="651.8535"/><polygon fill="#181818" points="686.5,641.8535,690.5,651.8535,694.5,641.8535,690.5,645.8535" style="stroke:#181818;stroke-width:1.0;"/><line style="stroke:#181818;stroke-width:1.0;" x1="690.5" x2="690.5" y1="184.6045" y2="194.6045"/><line style="stroke:#181818;stroke-width:1.0;" x1="690.5" x2="415" y1="194.6045" y2="194.6045"/><line style="stroke:#181818;stroke-width:1.0;" x1="415" x2="415" y1="194.6045" y2="212.1045"/><polygon fill="#181818" points="411,202.1045,415,212.1045,419,202.1045,415,206.1045" style="stroke:#181818;stroke-width:1.0;"/><line style="stroke:#181818;stroke-width:1.0;" x1="415" x2="415" y1="246.0732" y2="251.0732"/><line style="stroke:#181818;stroke-width:1.0;" x1="415" x2="690.5" y1="251.0732" y2="251.0732"/><line style="stroke:#181818;stroke-width:1.0;" x1="690.5" x2="690.5" y1="251.0732" y2="266.0732"/><polygon fill="#181818" points="686.5,256.0732,690.5,266.0732,694.5,256.0732,690.5,260.0732" style="stroke:#181818;stroke-width:1.0;"/><line style="stroke:#181818;stroke-width:1.0;" x1="690.5" x2="690.5" y1="399.7524" y2="404.7524"/><line style="stroke:#181818;stroke-width:1.0;" x1="690.5" x2="147" y1="404.7524" y2="404.7524"/><line style="stroke:#181818;stroke-width:1.0;" x1="147" x2="147" y1="404.7524" y2="420.2681"/><polygon fill="#181818" points="143,410.2681,147,420.2681,151,410.2681,147,414.2681" style="stroke:#181818;stroke-width:1.0;"/><line style="stroke:#181818;stroke-width:1.0;" x1="147" x2="147" y1="468.2056" y2="473.2056"/><line style="stroke:#181818;stroke-width:1.0;" x1="147" x2="690.5" y1="473.2056" y2="473.2056"/><line style="stroke:#181818;stroke-width:1.0;" x1="690.5" x2="690.5" y1="473.2056" y2="488.2056"/><polygon fill="#181818" points="686.5,478.2056,690.5,488.2056,694.5,478.2056,690.5,482.2056" style="stroke:#181818;stroke-width:1.0;"/><text fill="#000000" font-family="sans-serif" font-size="18" lengthAdjust="spacing" textLength="107" x="92.5" y="29.4531">&#1055;&#1086;&#1076;&#1087;&#1080;&#1089;&#1072;&#1085;&#1090;</text><text fill="#000000" font-family="sans-serif" font-size="18" lengthAdjust="spacing" textLength="133" x="347.5" y="29.4531">&#1057;&#1086;&#1075;&#1083;&#1072;&#1089;&#1091;&#1102;&#1097;&#1080;&#1081;</text><text fill="#000000" font-family="sans-serif" font-size="18" lengthAdjust="spacing" textLength="109" x="647.75" y="29.4531">&#1048;&#1085;&#1080;&#1094;&#1080;&#1072;&#1090;&#1086;&#1088;</text><!--SRC=[dLFBJi905DttAoPn8uqRjx0m-WtyG8KH6aiXfKPDkk3X8qQZnc3YHeb-GGMgHHxzXNl_o3D5qQfLucQItfvxpsFkU4kMMIgx9KTAswCkJMb04ONS99yctF8qRmROj7QaH_VutwSH-TpaDf_p2OKqL9YgOzWb06veWkOZb7rkqPGRdbRVDksQuHWLuSY22vWbDwfEKJhvibdOjcMzBbO_WOfoozYntBpSSzV1R5UaxOe23kdyplDknDZFwZfTKKzv4R0pfHTkqvW2POZy5LtN08XYgttqeX_W5_857y3rKFdxeK_NSveZQz9mjIpTeH9n0_1P9-IWlVaHJppJLoefo2qKOZPEVuJIiQ9KZOAUCMFmDcVuDyilySoaYzsoQKcndEJYKq4zJ0iIm-VYe2Fwj1ZXMaQOTSoufMjwo0YxwkAZGvUPHHIaXPUW-1fS-dh-bHfVf8_NS8me56XkGKe0IK_01F_9ivDSbszywPbbKVCX6IhX8UGMdubOnH1N05tpQnZdukmQk9-P0TXKcc0n3lDHxN9C_6rxkPtxyZwwiTqWzPLW8GJ6D_WGH3ti_Yi0]--></g></svg>