<?xml version="1.0" encoding="us-ascii" standalone="no"?><svg xmlns="http://www.w3.org/2000/svg" xmlns:xlink="http://www.w3.org/1999/xlink" contentStyleType="text/css" height="704px" preserveAspectRatio="none" style="width:873px;height:704px;background:#FFFFFF;" version="1.1" viewBox="0 0 873 704" width="873px" zoomAndPan="magnify"><defs/><g><rect fill="none" height="20.9531" style="stroke:none;stroke-width:1.0;" width="840.5" x="15" y="12.7451"/><rect fill="#90EE90" height="680.0615" style="stroke:#90EE90;stroke-width:1.0;" width="262" x="15" y="12.7451"/><rect fill="#F1F1F1" height="33.9688" rx="12.5" ry="12.5" style="stroke:#181818;stroke-width:0.5;" width="252" x="21" y="441.2212"/><text fill="#000000" font-family="sans-serif" font-size="12" lengthAdjust="spacing" textLength="232" x="31" y="462.3599">&#1055;&#1086;&#1083;&#1091;&#1095;&#1077;&#1085;&#1080;&#1077; &#1079;&#1072;&#1076;&#1072;&#1085;&#1080;&#1103; &#1085;&#1072; &#1087;&#1086;&#1076;&#1087;&#1080;&#1089;&#1072;&#1085;&#1080;&#1077;</text><line style="stroke:#000000;stroke-width:1.5;" x1="15" x2="15" y1="12.7451" y2="692.8066"/><rect fill="#ADD8E6" height="680.0615" style="stroke:#ADD8E6;stroke-width:1.0;" width="274" x="277" y="12.7451"/><rect fill="#F1F1F1" height="33.9688" rx="12.5" ry="12.5" style="stroke:#181818;stroke-width:0.5;" width="264" x="283" y="226.0732"/><text fill="#000000" font-family="sans-serif" font-size="12" lengthAdjust="spacing" textLength="244" x="293" y="247.2119">&#1055;&#1086;&#1083;&#1091;&#1095;&#1077;&#1085;&#1080;&#1077; &#1079;&#1072;&#1076;&#1072;&#1085;&#1080;&#1081; &#1085;&#1072; &#1089;&#1086;&#1075;&#1083;&#1072;&#1089;&#1086;&#1074;&#1072;&#1085;&#1080;&#1077;</text><line style="stroke:#000000;stroke-width:1.5;" x1="277" x2="277" y1="12.7451" y2="692.8066"/><rect fill="#FFA500" height="680.0615" style="stroke:#FFA500;stroke-width:1.0;" width="302.5" x="551" y="12.7451"/><rect fill="#D3D3D3" height="61.9063" rx="12.5" ry="12.5" style="stroke:#181818;stroke-width:0.5;" width="241" x="570" y="38.6982"/><text fill="#000000" font-family="sans-serif" font-size="12" font-weight="bold" lengthAdjust="spacing" textLength="123" x="629" y="59.8369">&#1042;&#1074;&#1086;&#1076; &#1076;&#1086;&#1082;&#1091;&#1084;&#1077;&#1085;&#1090;&#1072;,</text><text fill="#000000" font-family="sans-serif" font-size="12" font-weight="bold" lengthAdjust="spacing" textLength="221" x="580" y="73.8057">&#1087;&#1086;&#1076;&#1075;&#1086;&#1090;&#1086;&#1074;&#1082;&#1072; &#1092;&#1072;&#1081;&#1083;&#1072; &#1076;&#1086;&#1082;&#1091;&#1084;&#1077;&#1085;&#1090;&#1072;,</text><text fill="#000000" font-family="sans-serif" font-size="12" font-weight="bold" lengthAdjust="spacing" textLength="220" x="580.5" y="87.7744">&#1091;&#1089;&#1090;&#1072;&#1085;&#1086;&#1074;&#1082;&#1072; &#1089;&#1074;&#1103;&#1079;&#1080; &#1089;&#1086; &#1074;&#1093;&#1086;&#1076;&#1103;&#1097;&#1080;&#1084;&#1080;</text><rect fill="#F1F1F1" height="33.9688" rx="12.5" ry="12.5" style="stroke:#181818;stroke-width:0.5;" width="199" x="591" y="164.6045"/><text fill="#000000" font-family="sans-serif" font-size="12" lengthAdjust="spacing" textLength="179" x="601" y="185.7432">&#1054;&#1090;&#1087;&#1088;&#1072;&#1074;&#1082;&#1072; &#1085;&#1072; &#1089;&#1086;&#1075;&#1083;&#1072;&#1089;&#1086;&#1074;&#1072;&#1085;&#1080;&#1077;</text><polygon fill="#F1F1F1" points="690.5,120.6045,702.5,132.6045,690.5,144.6045,678.5,132.6045,690.5,120.6045" style="stroke:#181818;stroke-width:0.5;"/><polygon fill="#F1F1F1" points="578,280.042,803,280.042,815,292.042,803,304.042,578,304.042,566,292.042,578,280.042" style="stroke:#181818;stroke-width:0.5;"/><text fill="#000000" font-family="sans-serif" font-size="11" lengthAdjust="spacing" textLength="17" x="694.5" y="314.2524">&#1044;&#1040;</text><text fill="#000000" font-family="sans-serif" font-size="11" lengthAdjust="spacing" textLength="225" x="578" y="295.8501">&#1055;&#1086;&#1083;&#1091;&#1095;&#1077;&#1085;&#1099; &#1074;&#1089;&#1077; &#1089;&#1086;&#1075;&#1083;&#1072;&#1089;&#1091;&#1102;&#1097;&#1080;&#1077; &#1087;&#1086;&#1076;&#1087;&#1080;&#1089;&#1080;?</text><text fill="#000000" font-family="sans-serif" font-size="11" lengthAdjust="spacing" textLength="22" x="815" y="289.4478">&#1053;&#1045;&#1058;</text><rect fill="#F1F1F1" height="33.9688" rx="12.5" ry="12.5" style="stroke:#181818;stroke-width:0.5;" width="188" x="596.5" y="379.7524"/><text fill="#000000" font-family="sans-serif" font-size="12" lengthAdjust="spacing" textLength="168" x="606.5" y="400.8911">&#1054;&#1090;&#1087;&#1088;&#1072;&#1074;&#1082;&#1072; &#1085;&#1072; &#1087;&#1086;&#1076;&#1087;&#1080;&#1089;&#1072;&#1085;&#1080;&#1077;</text><polygon fill="#F1F1F1" points="690.5,335.7524,702.5,347.7524,690.5,359.7524,678.5,347.7524,690.5,335.7524" style="stroke:#181818;stroke-width:0.5;"/><polygon fill="#F1F1F1" points="628,495.1899,753,495.1899,765,507.1899,753,519.1899,628,519.1899,616,507.1899,628,495.1899" style="stroke:#181818;stroke-width:0.5;"/><text fill="#000000" font-family="sans-serif" font-size="11" lengthAdjust="spacing" textLength="17" x="694.5" y="529.4004">&#1044;&#1040;</text><text fill="#000000" font-family="sans-serif" font-size="11" lengthAdjust="spacing" textLength="125" x="628" y="510.998">&#1044;&#1086;&#1082;&#1091;&#1084;&#1077;&#1085;&#1090; &#1087;&#1086;&#1076;&#1087;&#1080;&#1089;&#1072;&#1085;?</text><text fill="#000000" font-family="sans-serif" font-size="11" lengthAdjust="spacing" textLength="22" x="765" y="504.5957">&#1053;&#1045;&#1058;</text><rect fill="#F1F1F1" height="33.9688" rx="12.5" ry="12.5" style="stroke:#181818;stroke-width:0.5;" width="107" x="637" y="550.9004"/><text fill="#000000" font-family="sans-serif" font-size="12" lengthAdjust="spacing" textLength="87" x="647" y="572.0391">&#1056;&#1077;&#1075;&#1080;&#1089;&#1090;&#1088;&#1072;&#1094;&#1080;&#1103;</text><rect fill="#F1F1F1" height="33.9688" rx="12.5" ry="12.5" style="stroke:#181818;stroke-width:0.5;" width="166" x="607.5" y="604.8691"/><text fill="#000000" font-family="sans-serif" font-size="12" lengthAdjust="spacing" textLength="146" x="617.5" y="626.0078">&#1054;&#1090;&#1087;&#1088;&#1072;&#1074;&#1082;&#1072; &#1087;&#1086;&#1083;&#1091;&#1095;&#1072;&#1090;&#1077;&#1083;&#1102;</text><rect fill="#D3D3D3" height="33.9688" rx="12.5" ry="12.5" style="stroke:#181818;stroke-width:0.5;" width="223" x="579" y="658.8379"/><text fill="#000000" font-family="sans-serif" font-size="12" font-weight="bold" lengthAdjust="spacing" textLength="203" x="589" y="679.9766">&#1055;&#1077;&#1088;&#1077;&#1074;&#1086;&#1076; &#1076;&#1086;&#1082;&#1091;&#1084;&#1077;&#1085;&#1090;&#1072; &#1074; &#1072;&#1088;&#1093;&#1080;&#1074;</text><line style="stroke:#000000;stroke-width:1.5;" x1="551" x2="551" y1="12.7451" y2="692.8066"/><line style="stroke:#000000;stroke-width:1.5;" x1="853.5" x2="853.5" y1="12.7451" y2="692.8066"/><line style="stroke:#181818;stroke-width:1.0;" x1="690.5" x2="690.5" y1="144.6045" y2="164.6045"/><polygon fill="#181818" points="686.5,154.6045,690.5,164.6045,694.5,154.6045,690.5,158.6045" style="stroke:#181818;stroke-width:1.0;"/><line style="stroke:#181818;stroke-width:1.0;" x1="815" x2="834.5" y1="292.042" y2="292.042"/><polygon fill="#181818" points="830.5,218.5732,834.5,208.5732,838.5,218.5732,834.5,214.5732" style="stroke:#181818;stroke-width:1.0;"/><line style="stroke:#181818;stroke-width:1.0;" x1="834.5" x2="834.5" y1="132.6045" y2="292.042"/><line style="stroke:#181818;stroke-width:1.0;" x1="834.5" x2="702.5" y1="132.6045" y2="132.6045"/><polygon fill="#181818" points="712.5,128.6045,702.5,132.6045,712.5,136.6045,708.5,132.6045" style="stroke:#181818;stroke-width:1.0;"/><line style="stroke:#181818;stroke-width:1.0;" x1="690.5" x2="690.5" y1="100.6045" y2="120.6045"/><polygon fill="#181818" points="686.5,110.6045,690.5,120.6045,694.5,110.6045,690.5,114.6045" style="stroke:#181818;stroke-width:1.0;"/><line style="stroke:#181818;stroke-width:1.0;" x1="690.5" x2="690.5" y1="359.7524" y2="379.7524"/><polygon fill="#181818" points="686.5,369.7524,690.5,379.7524,694.5,369.7524,690.5,373.7524" style="stroke:#181818;stroke-width:1.0;"/><line style="stroke:#181818;stroke-width:1.0;" x1="765" x2="828.5" y1="507.1899" y2="507.1899"/><polygon fill="#181818" points="824.5,433.7212,828.5,423.7212,832.5,433.7212,828.5,429.7212" style="stroke:#181818;stroke-width:1.0;"/><line style="stroke:#181818;stroke-width:1.0;" x1="828.5" x2="828.5" y1="347.7524" y2="507.1899"/><line style="stroke:#181818;stroke-width:1.0;" x1="828.5" x2="702.5" y1="347.7524" y2="347.7524"/><polygon fill="#181818" points="712.5,343.7524,702.5,347.7524,712.5,351.7524,708.5,347.7524" style="stroke:#181818;stroke-width:1.0;"/><line style="stroke:#181818;stroke-width:1.0;" x1="690.5" x2="690.5" y1="304.042" y2="335.7524"/><polygon fill="#181818" points="686.5,325.7524,690.5,335.7524,694.5,325.7524,690.5,329.7524" style="stroke:#181818;stroke-width:1.0;"/><line style="stroke:#181818;stroke-width:1.0;" x1="690.5" x2="690.5" y1="519.1899" y2="550.9004"/><polygon fill="#181818" points="686.5,540.9004,690.5,550.9004,694.5,540.9004,690.5,544.9004" style="stroke:#181818;stroke-width:1.0;"/><line style="stroke:#181818;stroke-width:1.0;" x1="690.5" x2="690.5" y1="584.8691" y2="604.8691"/><polygon fill="#181818" points="686.5,594.8691,690.5,604.8691,694.5,594.8691,690.5,598.8691" style="stroke:#181818;stroke-width:1.0;"/><line style="stroke:#181818;stroke-width:1.0;" x1="690.5" x2="690.5" y1="638.8379" y2="658.8379"/><polygon fill="#181818" points="686.5,648.8379,690.5,658.8379,694.5,648.8379,690.5,652.8379" style="stroke:#181818;stroke-width:1.0;"/><line style="stroke:#181818;stroke-width:1.0;" x1="690.5" x2="690.5" y1="198.5732" y2="208.5732"/><line style="stroke:#181818;stroke-width:1.0;" x1="690.5" x2="415" y1="208.5732" y2="208.5732"/><line style="stroke:#181818;stroke-width:1.0;" x1="415" x2="415" y1="208.5732" y2="226.0732"/><polygon fill="#181818" points="411,216.0732,415,226.0732,419,216.0732,415,220.0732" style="stroke:#181818;stroke-width:1.0;"/><line style="stroke:#181818;stroke-width:1.0;" x1="415" x2="415" y1="260.042" y2="265.042"/><line style="stroke:#181818;stroke-width:1.0;" x1="415" x2="690.5" y1="265.042" y2="265.042"/><line style="stroke:#181818;stroke-width:1.0;" x1="690.5" x2="690.5" y1="265.042" y2="280.042"/><polygon fill="#181818" points="686.5,270.042,690.5,280.042,694.5,270.042,690.5,274.042" style="stroke:#181818;stroke-width:1.0;"/><line style="stroke:#181818;stroke-width:1.0;" x1="690.5" x2="690.5" y1="413.7212" y2="423.7212"/><line style="stroke:#181818;stroke-width:1.0;" x1="690.5" x2="147" y1="423.7212" y2="423.7212"/><line style="stroke:#181818;stroke-width:1.0;" x1="147" x2="147" y1="423.7212" y2="441.2212"/><polygon fill="#181818" points="143,431.2212,147,441.2212,151,431.2212,147,435.2212" style="stroke:#181818;stroke-width:1.0;"/><line style="stroke:#181818;stroke-width:1.0;" x1="147" x2="147" y1="475.1899" y2="480.1899"/><line style="stroke:#181818;stroke-width:1.0;" x1="147" x2="690.5" y1="480.1899" y2="480.1899"/><line style="stroke:#181818;stroke-width:1.0;" x1="690.5" x2="690.5" y1="480.1899" y2="495.1899"/><polygon fill="#181818" points="686.5,485.1899,690.5,495.1899,694.5,485.1899,690.5,489.1899" style="stroke:#181818;stroke-width:1.0;"/><text fill="#000000" font-family="sans-serif" font-size="18" lengthAdjust="spacing" textLength="107" x="92.5" y="29.4531">&#1055;&#1086;&#1076;&#1087;&#1080;&#1089;&#1072;&#1085;&#1090;</text><text fill="#000000" font-family="sans-serif" font-size="18" lengthAdjust="spacing" textLength="133" x="347.5" y="29.4531">&#1057;&#1086;&#1075;&#1083;&#1072;&#1089;&#1091;&#1102;&#1097;&#1080;&#1081;</text><text fill="#000000" font-family="sans-serif" font-size="18" lengthAdjust="spacing" textLength="109" x="647.75" y="29.4531">&#1048;&#1085;&#1080;&#1094;&#1080;&#1072;&#1090;&#1086;&#1088;</text><!--SRC=[ZLDBJkD05Dpx52sn8HORjibYn9o12vZG91R6GOuZGF8Y3WC8ZKH68v3O3ByJM0aM3f_u2lLkHBKZeeJ18Hkhk_sgwbNrwsZ5SnlDi15exKUunHYFo959Z0HlqekiQ5AmvNLqX7l-7-85YSHoB1ToZWmZKzCA7B_1Wcky4NpAuqHw64itijgxhh_l1CwU2dGzP9cdVxQ2RHriDjtwhg_RRRK-KxIjTvoE5sxgmt23olwUzaDLvqS7YtK-Z3X7LTl6NmoC5qKxOppBCLwH6aD8rcpROa5UM1qIIpoBdv4e-KNN8-El54VRiTbHVugACP0-df2PvLXnTsB8fL_ayuhCjcjMeFUr4rfLt12UIvSK4pYP2evfiWMn4SYGrfRAlrfSt0kFpaot1gZOJq8J4vxHzoeBafsqhWwQhgVLwhoM_3P-OmhEaa-ROn_vp4nbFohARPFZ7wxmK55-A-Jc4dygotHG5jwSnEVWoYVxkzIalvX- -SGkvsVfFyRoLAgu8sPe2gLdV1iTwTU-YYAVkZ5zf5nVr3wzYbkaHAIbRuDtgOZkSe0p33Ysxm00]--></g></svg>