<?xml version="1.0" encoding="us-ascii" standalone="no"?><svg xmlns="http://www.w3.org/2000/svg" xmlns:xlink="http://www.w3.org/1999/xlink" contentStyleType="text/css" height="514px" preserveAspectRatio="none" style="width:743px;height:514px;background:#FFFFFF;" version="1.1" viewBox="0 0 743 514" width="743px" zoomAndPan="magnify"><defs/><g><rect fill="none" height="20.9531" style="stroke:none;stroke-width:1.0;" width="688" x="15" y="12.7451"/><rect fill="#FFA500" height="489.2969" style="stroke:#FFA500;stroke-width:1.0;" width="406" x="15" y="12.7451"/><rect fill="#D3D3D3" height="33.9688" rx="12.5" ry="12.5" style="stroke:#181818;stroke-width:0.5;" width="210" x="48" y="38.6982"/><text fill="#000000" font-family="sans-serif" font-size="12" font-weight="bold" lengthAdjust="spacing" textLength="190" x="58" y="59.8369">&#1042;&#1074;&#1086;&#1076; &#1076;&#1086;&#1082;&#1091;&#1084;&#1077;&#1085;&#1090;&#1072; &#1074; &#1089;&#1080;&#1089;&#1090;&#1077;&#1084;&#1091;</text><rect fill="#F1F1F1" height="33.9688" rx="12.5" ry="12.5" style="stroke:#181818;stroke-width:0.5;" width="183" x="61.5" y="92.667"/><text fill="#000000" font-family="sans-serif" font-size="12" lengthAdjust="spacing" textLength="163" x="71.5" y="113.8057">&#1056;&#1077;&#1075;&#1080;&#1089;&#1090;&#1088;&#1072;&#1094;&#1080;&#1103; &#1076;&#1086;&#1082;&#1091;&#1084;&#1077;&#1085;&#1090;&#1072;</text><polygon fill="#F1F1F1" points="54,146.6357,252,146.6357,264,158.6357,252,170.6357,54,170.6357,42,158.6357,54,146.6357" style="stroke:#181818;stroke-width:0.5;"/><text fill="#000000" font-family="sans-serif" font-size="11" lengthAdjust="spacing" textLength="198" x="54" y="162.4438">&#1058;&#1088;&#1077;&#1073;&#1091;&#1077;&#1090;&#1089;&#1103; &#1088;&#1072;&#1073;&#1086;&#1090;&#1072; &#1087;&#1086; &#1076;&#1086;&#1082;&#1091;&#1084;&#1077;&#1085;&#1090;&#1091;?</text><text fill="#000000" font-family="sans-serif" font-size="11" lengthAdjust="spacing" textLength="22" x="20" y="156.0415">&#1053;&#1045;&#1058;</text><text fill="#000000" font-family="sans-serif" font-size="11" lengthAdjust="spacing" textLength="17" x="264" y="156.0415">&#1044;&#1040;</text><rect fill="#F1F1F1" height="33.9688" rx="12.5" ry="12.5" style="stroke:#181818;stroke-width:0.5;" width="286" x="131" y="234.6357"/><text fill="#000000" font-family="sans-serif" font-size="12" lengthAdjust="spacing" textLength="266" x="141" y="255.7744">&#1054;&#1073;&#1088;&#1072;&#1073;&#1086;&#1090;&#1082;&#1072; &#1074;&#1093;&#1086;&#1076;&#1103;&#1097;&#1077;&#1081; &#1082;&#1086;&#1088;&#1088;&#1077;&#1089;&#1087;&#1086;&#1085;&#1076;&#1077;&#1085;&#1094;&#1080;&#1080;</text><polygon fill="#F1F1F1" points="274,190.6357,286,202.6357,274,214.6357,262,202.6357,274,190.6357" style="stroke:#181818;stroke-width:0.5;"/><polygon fill="#F1F1F1" points="153,384.0732,165,396.0732,153,408.0732,141,396.0732,153,384.0732" style="stroke:#181818;stroke-width:0.5;"/><rect fill="#D3D3D3" height="33.9688" rx="12.5" ry="12.5" style="stroke:#181818;stroke-width:0.5;" width="223" x="41.5" y="428.0732"/><text fill="#000000" font-family="sans-serif" font-size="12" font-weight="bold" lengthAdjust="spacing" textLength="203" x="51.5" y="449.2119">&#1055;&#1077;&#1088;&#1077;&#1074;&#1086;&#1076; &#1076;&#1086;&#1082;&#1091;&#1084;&#1077;&#1085;&#1090;&#1072; &#1074; &#1072;&#1088;&#1093;&#1080;&#1074;</text><ellipse cx="153" cy="492.042" fill="none" rx="10" ry="10" style="stroke:#222222;stroke-width:1.5;"/><line style="stroke:#222222;stroke-width:2.5;" x1="146.8128" x2="159.1872" y1="485.8548" y2="498.2292"/><line style="stroke:#222222;stroke-width:2.5;" x1="159.1872" x2="146.8128" y1="485.8548" y2="498.2292"/><line style="stroke:#000000;stroke-width:1.5;" x1="15" x2="15" y1="12.7451" y2="502.042"/><rect fill="#90EE90" height="489.2969" style="stroke:#90EE90;stroke-width:1.0;" width="280" x="421" y="12.7451"/><rect fill="#F1F1F1" height="33.9688" rx="12.5" ry="12.5" style="stroke:#181818;stroke-width:0.5;" width="270" x="427" y="296.1045"/><text fill="#000000" font-family="sans-serif" font-size="12" font-weight="bold" lengthAdjust="spacing" textLength="250" x="437" y="317.2432">&#1048;&#1089;&#1087;&#1086;&#1083;&#1085;&#1077;&#1085;&#1080;&#1077; &#1079;&#1072;&#1076;&#1072;&#1085;&#1080;&#1081; &#1087;&#1086; &#1076;&#1086;&#1082;&#1091;&#1084;&#1077;&#1085;&#1090;&#1091;</text><polygon fill="#F1F1F1" points="525,350.0732,599,350.0732,611,362.0732,599,374.0732,525,374.0732,513,362.0732,525,350.0732" style="stroke:#181818;stroke-width:0.5;"/><text fill="#000000" font-family="sans-serif" font-size="11" lengthAdjust="spacing" textLength="17" x="566" y="384.2837">&#1044;&#1040;</text><text fill="#000000" font-family="sans-serif" font-size="11" lengthAdjust="spacing" textLength="74" x="525" y="365.8813">&#1047;&#1072;&#1074;&#1077;&#1088;&#1096;&#1077;&#1085;&#1086;?</text><text fill="#000000" font-family="sans-serif" font-size="11" lengthAdjust="spacing" textLength="22" x="611" y="359.479">&#1053;&#1045;&#1058;</text><line style="stroke:#000000;stroke-width:1.5;" x1="421" x2="421" y1="12.7451" y2="502.042"/><line style="stroke:#000000;stroke-width:1.5;" x1="701" x2="701" y1="12.7451" y2="502.042"/><line style="stroke:#181818;stroke-width:1.0;" x1="153" x2="153" y1="72.667" y2="92.667"/><polygon fill="#181818" points="149,82.667,153,92.667,157,82.667,153,86.667" style="stroke:#181818;stroke-width:1.0;"/><line style="stroke:#181818;stroke-width:1.0;" x1="274" x2="274" y1="214.6357" y2="234.6357"/><polygon fill="#181818" points="270,224.6357,274,234.6357,278,224.6357,274,228.6357" style="stroke:#181818;stroke-width:1.0;"/><line style="stroke:#181818;stroke-width:1.0;" x1="42" x2="32" y1="158.6357" y2="158.6357"/><line style="stroke:#181818;stroke-width:1.0;" x1="32" x2="32" y1="158.6357" y2="396.0732"/><line style="stroke:#181818;stroke-width:1.0;" x1="32" x2="141" y1="396.0732" y2="396.0732"/><polygon fill="#181818" points="131,392.0732,141,396.0732,131,400.0732,135,396.0732" style="stroke:#181818;stroke-width:1.0;"/><line style="stroke:#181818;stroke-width:1.0;" x1="264" x2="274" y1="158.6357" y2="158.6357"/><line style="stroke:#181818;stroke-width:1.0;" x1="274" x2="274" y1="158.6357" y2="190.6357"/><polygon fill="#181818" points="270,180.6357,274,190.6357,278,180.6357,274,184.6357" style="stroke:#181818;stroke-width:1.0;"/><line style="stroke:#181818;stroke-width:1.0;" x1="153" x2="153" y1="126.6357" y2="146.6357"/><polygon fill="#181818" points="149,136.6357,153,146.6357,157,136.6357,153,140.6357" style="stroke:#181818;stroke-width:1.0;"/><line style="stroke:#181818;stroke-width:1.0;" x1="153" x2="153" y1="408.0732" y2="428.0732"/><polygon fill="#181818" points="149,418.0732,153,428.0732,157,418.0732,153,422.0732" style="stroke:#181818;stroke-width:1.0;"/><line style="stroke:#181818;stroke-width:1.0;" x1="153" x2="153" y1="462.042" y2="482.042"/><polygon fill="#181818" points="149,472.042,153,482.042,157,472.042,153,476.042" style="stroke:#181818;stroke-width:1.0;"/><line style="stroke:#181818;stroke-width:1.0;" x1="562" x2="562" y1="330.0732" y2="350.0732"/><polygon fill="#181818" points="558,340.0732,562,350.0732,566,340.0732,562,344.0732" style="stroke:#181818;stroke-width:1.0;"/><line style="stroke:#181818;stroke-width:1.0;" x1="274" x2="274" y1="268.6045" y2="278.6045"/><line style="stroke:#181818;stroke-width:1.0;" x1="274" x2="562" y1="278.6045" y2="278.6045"/><line style="stroke:#181818;stroke-width:1.0;" x1="562" x2="562" y1="278.6045" y2="296.1045"/><polygon fill="#181818" points="558,286.1045,562,296.1045,566,286.1045,562,290.1045" style="stroke:#181818;stroke-width:1.0;"/><line style="stroke:#181818;stroke-width:1.0;" x1="611" x2="717" y1="362.0732" y2="362.0732"/><polygon fill="#181818" points="713,288.6045,717,278.6045,721,288.6045,717,284.6045" style="stroke:#181818;stroke-width:1.0;"/><line style="stroke:#181818;stroke-width:1.0;" x1="717" x2="717" y1="202.6357" y2="362.0732"/><line style="stroke:#181818;stroke-width:1.0;" x1="717" x2="286" y1="202.6357" y2="202.6357"/><polygon fill="#181818" points="296,198.6357,286,202.6357,296,206.6357,292,202.6357" style="stroke:#181818;stroke-width:1.0;"/><line style="stroke:#181818;stroke-width:1.0;" x1="562" x2="562" y1="374.0732" y2="396.0732"/><line style="stroke:#181818;stroke-width:1.0;" x1="562" x2="165" y1="396.0732" y2="396.0732"/><polygon fill="#181818" points="175,392.0732,165,396.0732,175,400.0732,171,396.0732" style="stroke:#181818;stroke-width:1.0;"/><text fill="#000000" font-family="sans-serif" font-size="18" lengthAdjust="spacing" textLength="120" x="158" y="29.4531">&#1056;&#1077;&#1075;&#1080;&#1089;&#1090;&#1088;&#1072;&#1090;&#1086;&#1088;</text><text fill="#000000" font-family="sans-serif" font-size="18" lengthAdjust="spacing" textLength="216" x="453" y="29.4531">&#1048;&#1089;&#1087;&#1086;&#1083;&#1085;&#1080;&#1090;&#1077;&#1083;&#1100; &#1079;&#1072;&#1076;&#1072;&#1085;&#1080;&#1103;</text><!--SRC=[hLBBJi905DttAoPXeR1p2mkZt-0Fr7AX3MKWqwenwO97D9gOO8n6Dpx25q2b4NdKNxZpHvu15H6Y6nTDP-uzvzvpJYQeUB9kAxig53cXBSi-xTPKaTIUwpaLIK4WjgmeKrDeKSHFdF0p3tLJjtI3Uxh5gMv4LiRtocvOLlPnFfVZAuuvvO7W0NuZtUO9M5DWUu9ZePjpFceJtSxb2bP-PUmfpfqr_8BbbSGcTm5Ak8zE0a8JKCFYFiJCbhnnkaBMxUsi25sIuD_p3NUpbX2-lK- -2EgsGmhNZIKVEyfnlKCInPfpK2KP6gd0a2nQv0U4ETTyQQOegfCTuf3d1wXQI1dD7EiJauRkw7CeUHMe8ZFZ04b0AKyXrKY4QHwQ5T6d328PyTq7R0pWS1RRM5y8Vi6M0JvJx4HcEPB_ZarCYvCbf5c_FfovkRaJSUHwll5t2rOCdGrzDXkN8a8l-0fGo5guIE7FH_8pNtuqeu7zxRM0ta20GuwDGcJlbQn_cF8E]--></g></svg>