<?xml version="1.0" encoding="us-ascii" standalone="no"?><svg xmlns="http://www.w3.org/2000/svg" xmlns:xlink="http://www.w3.org/1999/xlink" contentStyleType="text/css" height="475px" preserveAspectRatio="none" style="width:981px;height:475px;background:#FFFFFF;" version="1.1" viewBox="0 0 981 475" width="981px" zoomAndPan="magnify"><defs/><g><rect fill="none" height="20.9531" style="stroke:none;stroke-width:1.0;" width="948" x="15" y="12.7451"/><rect fill="#90EE90" height="450.9448" style="stroke:#90EE90;stroke-width:1.0;" width="280" x="15" y="12.7451"/><rect fill="#F1F1F1" height="33.9688" rx="12.5" ry="12.5" style="stroke:#181818;stroke-width:0.5;" width="270" x="21" y="429.7212"/><text fill="#000000" font-family="sans-serif" font-size="12" font-weight="bold" lengthAdjust="spacing" textLength="250" x="31" y="450.8599">&#1048;&#1089;&#1087;&#1086;&#1083;&#1085;&#1077;&#1085;&#1080;&#1077; &#1079;&#1072;&#1076;&#1072;&#1085;&#1080;&#1081; &#1087;&#1086; &#1076;&#1086;&#1082;&#1091;&#1084;&#1077;&#1085;&#1090;&#1091;</text><line style="stroke:#000000;stroke-width:1.5;" x1="15" x2="15" y1="12.7451" y2="463.6899"/><rect fill="#ADD8E6" height="450.9448" style="stroke:#ADD8E6;stroke-width:1.0;" width="274" x="295" y="12.7451"/><rect fill="#F1F1F1" height="33.9688" rx="12.5" ry="12.5" style="stroke:#181818;stroke-width:0.5;" width="264" x="301" y="212.1045"/><text fill="#000000" font-family="sans-serif" font-size="12" lengthAdjust="spacing" textLength="244" x="311" y="233.2432">&#1055;&#1086;&#1083;&#1091;&#1095;&#1077;&#1085;&#1080;&#1077; &#1079;&#1072;&#1076;&#1072;&#1085;&#1080;&#1081; &#1085;&#1072; &#1089;&#1086;&#1075;&#1083;&#1072;&#1089;&#1086;&#1074;&#1072;&#1085;&#1080;&#1077;</text><line style="stroke:#000000;stroke-width:1.5;" x1="295" x2="295" y1="12.7451" y2="463.6899"/><rect fill="#FFA500" height="450.9448" style="stroke:#FFA500;stroke-width:1.0;" width="392" x="569" y="12.7451"/><rect fill="#D3D3D3" height="47.9375" rx="12.5" ry="12.5" style="stroke:#181818;stroke-width:0.5;" width="236" x="636.5" y="38.6982"/><text fill="#000000" font-family="sans-serif" font-size="12" font-weight="bold" lengthAdjust="spacing" textLength="123" x="693" y="59.8369">&#1042;&#1074;&#1086;&#1076; &#1076;&#1086;&#1082;&#1091;&#1084;&#1077;&#1085;&#1090;&#1072;,</text><text fill="#000000" font-family="sans-serif" font-size="12" font-weight="bold" lengthAdjust="spacing" textLength="216" x="646.5" y="73.8057">&#1087;&#1086;&#1076;&#1075;&#1086;&#1090;&#1086;&#1074;&#1082;&#1072; &#1092;&#1072;&#1081;&#1083;&#1072; &#1076;&#1086;&#1082;&#1091;&#1084;&#1077;&#1085;&#1090;&#1072;</text><rect fill="#F1F1F1" height="33.9688" rx="12.5" ry="12.5" style="stroke:#181818;stroke-width:0.5;" width="199" x="655" y="150.6357"/><text fill="#000000" font-family="sans-serif" font-size="12" lengthAdjust="spacing" textLength="179" x="665" y="171.7744">&#1054;&#1090;&#1087;&#1088;&#1072;&#1074;&#1082;&#1072; &#1085;&#1072; &#1089;&#1086;&#1075;&#1083;&#1072;&#1089;&#1086;&#1074;&#1072;&#1085;&#1080;&#1077;</text><polygon fill="#F1F1F1" points="754.5,106.6357,766.5,118.6357,754.5,130.6357,742.5,118.6357,754.5,106.6357" style="stroke:#181818;stroke-width:0.5;"/><polygon fill="#F1F1F1" points="644,266.0732,865,266.0732,877,278.0732,865,290.0732,644,290.0732,632,278.0732,644,266.0732" style="stroke:#181818;stroke-width:0.5;"/><text fill="#000000" font-family="sans-serif" font-size="11" lengthAdjust="spacing" textLength="17" x="758.5" y="300.2837">&#1044;&#1040;</text><text fill="#000000" font-family="sans-serif" font-size="11" lengthAdjust="spacing" textLength="221" x="644" y="281.8813">&#1055;&#1086;&#1083;&#1091;&#1095;&#1077;&#1085;&#1099; &#1087;&#1086;&#1083;&#1086;&#1078;&#1080;&#1090;&#1077;&#1083;&#1100;&#1085;&#1099;&#1077; &#1088;&#1077;&#1096;&#1077;&#1085;&#1080;&#1103;?</text><text fill="#000000" font-family="sans-serif" font-size="11" lengthAdjust="spacing" textLength="22" x="877" y="275.479">&#1053;&#1045;&#1058;</text><rect fill="#F1F1F1" height="33.9688" rx="12.5" ry="12.5" style="stroke:#181818;stroke-width:0.5;" width="272" x="618.5" y="321.7837"/><text fill="#000000" font-family="sans-serif" font-size="12" lengthAdjust="spacing" textLength="252" x="628.5" y="342.9224">&#1053;&#1072;&#1079;&#1085;&#1072;&#1095;&#1077;&#1085;&#1080;&#1077; &#1076;&#1086;&#1082;&#1091;&#1084;&#1077;&#1085;&#1090;&#1072; &#1076;&#1077;&#1081;&#1089;&#1090;&#1074;&#1091;&#1102;&#1097;&#1080;&#1084;</text><rect fill="#F1F1F1" height="33.9688" rx="12.5" ry="12.5" style="stroke:#181818;stroke-width:0.5;" width="246" x="631.5" y="375.7524"/><text fill="#000000" font-family="sans-serif" font-size="12" lengthAdjust="spacing" textLength="226" x="641.5" y="396.8911">&#1054;&#1088;&#1075;&#1072;&#1085;&#1080;&#1079;&#1072;&#1094;&#1080;&#1103; &#1088;&#1072;&#1073;&#1086;&#1090; &#1087;&#1086; &#1076;&#1086;&#1082;&#1091;&#1084;&#1077;&#1085;&#1090;&#1091;</text><line style="stroke:#000000;stroke-width:1.5;" x1="569" x2="569" y1="12.7451" y2="463.6899"/><line style="stroke:#000000;stroke-width:1.5;" x1="961" x2="961" y1="12.7451" y2="463.6899"/><line style="stroke:#181818;stroke-width:1.0;" x1="754.5" x2="754.5" y1="130.6357" y2="150.6357"/><polygon fill="#181818" points="750.5,140.6357,754.5,150.6357,758.5,140.6357,754.5,144.6357" style="stroke:#181818;stroke-width:1.0;"/><line style="stroke:#181818;stroke-width:1.0;" x1="877" x2="898.5" y1="278.0732" y2="278.0732"/><polygon fill="#181818" points="894.5,204.6045,898.5,194.6045,902.5,204.6045,898.5,200.6045" style="stroke:#181818;stroke-width:1.0;"/><line style="stroke:#181818;stroke-width:1.0;" x1="898.5" x2="898.5" y1="118.6357" y2="278.0732"/><line style="stroke:#181818;stroke-width:1.0;" x1="898.5" x2="766.5" y1="118.6357" y2="118.6357"/><polygon fill="#181818" points="776.5,114.6357,766.5,118.6357,776.5,122.6357,772.5,118.6357" style="stroke:#181818;stroke-width:1.0;"/><line style="stroke:#181818;stroke-width:1.0;" x1="754.5" x2="754.5" y1="86.6357" y2="106.6357"/><polygon fill="#181818" points="750.5,96.6357,754.5,106.6357,758.5,96.6357,754.5,100.6357" style="stroke:#181818;stroke-width:1.0;"/><line style="stroke:#181818;stroke-width:1.0;" x1="754.5" x2="754.5" y1="290.0732" y2="321.7837"/><polygon fill="#181818" points="750.5,311.7837,754.5,321.7837,758.5,311.7837,754.5,315.7837" style="stroke:#181818;stroke-width:1.0;"/><line style="stroke:#181818;stroke-width:1.0;" x1="754.5" x2="754.5" y1="355.7524" y2="375.7524"/><polygon fill="#181818" points="750.5,365.7524,754.5,375.7524,758.5,365.7524,754.5,369.7524" style="stroke:#181818;stroke-width:1.0;"/><line style="stroke:#181818;stroke-width:1.0;" x1="754.5" x2="754.5" y1="184.6045" y2="194.6045"/><line style="stroke:#181818;stroke-width:1.0;" x1="754.5" x2="433" y1="194.6045" y2="194.6045"/><line style="stroke:#181818;stroke-width:1.0;" x1="433" x2="433" y1="194.6045" y2="212.1045"/><polygon fill="#181818" points="429,202.1045,433,212.1045,437,202.1045,433,206.1045" style="stroke:#181818;stroke-width:1.0;"/><line style="stroke:#181818;stroke-width:1.0;" x1="433" x2="433" y1="246.0732" y2="251.0732"/><line style="stroke:#181818;stroke-width:1.0;" x1="433" x2="754.5" y1="251.0732" y2="251.0732"/><line style="stroke:#181818;stroke-width:1.0;" x1="754.5" x2="754.5" y1="251.0732" y2="266.0732"/><polygon fill="#181818" points="750.5,256.0732,754.5,266.0732,758.5,256.0732,754.5,260.0732" style="stroke:#181818;stroke-width:1.0;"/><line style="stroke:#181818;stroke-width:1.0;" x1="754.5" x2="754.5" y1="409.7212" y2="414.7212"/><line style="stroke:#181818;stroke-width:1.0;" x1="754.5" x2="156" y1="414.7212" y2="414.7212"/><line style="stroke:#181818;stroke-width:1.0;" x1="156" x2="156" y1="414.7212" y2="429.7212"/><polygon fill="#181818" points="152,419.7212,156,429.7212,160,419.7212,156,423.7212" style="stroke:#181818;stroke-width:1.0;"/><text fill="#000000" font-family="sans-serif" font-size="18" lengthAdjust="spacing" textLength="216" x="47" y="29.4531">&#1048;&#1089;&#1087;&#1086;&#1083;&#1085;&#1080;&#1090;&#1077;&#1083;&#1100; &#1079;&#1072;&#1076;&#1072;&#1085;&#1080;&#1103;</text><text fill="#000000" font-family="sans-serif" font-size="18" lengthAdjust="spacing" textLength="133" x="365.5" y="29.4531">&#1057;&#1086;&#1075;&#1083;&#1072;&#1089;&#1091;&#1102;&#1097;&#1080;&#1081;</text><text fill="#000000" font-family="sans-serif" font-size="18" lengthAdjust="spacing" textLength="382" x="574" y="29.4531">&#1056;&#1077;&#1075;&#1080;&#1089;&#1090;&#1088;&#1072;&#1090;&#1086;&#1088;, &#1059;&#1095;&#1072;&#1089;&#1090;&#1085;&#1080;&#1082; &#1088;&#1072;&#1073;&#1086;&#1095;&#1077;&#1081; &#1075;&#1088;&#1091;&#1087;&#1087;&#1099;</text><!--SRC=[hLFBJi9G5DptAsxYHXetRc5Xz1luWGfNQ2o5j2LgqWKjnaSqQemcRdp_GEMXl2o_SCuVERTLmQ1H4nQGSE_Cd3ap5t_1Cajbh-H8QVjqnG6DAQOXlLAFG-hIa8y5lL147NpKuQcl-IbdtQfBd-u1RuCGSS1DFk53wb5VOQgEOPS0k8DA6yI0Gsu05bBCZIL1ZxoVa48bImEXBka9b_iWz0MrkS5Dk1dpaQ-vcwPTCnoZ8XnPy21ioRMgKvHElcmMDctfkc9v2bIK6qRTyl9osrk5LxiYRKyKy2MTUJlxoC_OoUewdLCBUNG4ueff0DG8b5SeHKkwhW6WqkrWQgoc0JoWIF0kzFigmszukfxJ75cJXgTbwGOduyHEoeH1q8D91ObcKXHrStygAaktgd0SgUqIufV2rSA_JPbheEcoOgjiMb8iVdN7H-BzVSRqF7cXwWAs8TlbWtGBFbt92DE5m3LTqaD6s5KFFoxeB3DlmrcCY10PKfhESAP9TGHs8jlwh62KItfjm4UQABBdFRN0P6gOR3qZoStFYl_r_rKFTHhvK-tVpyI3V0C0]--></g></svg>