<?xml version="1.0" encoding="us-ascii" standalone="no"?><svg xmlns="http://www.w3.org/2000/svg" xmlns:xlink="http://www.w3.org/1999/xlink" contentStyleType="text/css" height="462px" preserveAspectRatio="none" style="width:1176px;height:462px;background:#FFFFFF;" version="1.1" viewBox="0 0 1176 462" width="1176px" zoomAndPan="magnify"><defs/><g><rect fill="#D3D3D3" height="33.9688" rx="12.5" ry="12.5" style="stroke:#181818;stroke-width:0.5;" width="195" x="490.5" y="11"/><text fill="#000000" font-family="sans-serif" font-size="12" lengthAdjust="spacing" textLength="175" x="500.5" y="32.1387">&#1055;&#1088;&#1072;&#1074;&#1080;&#1083;&#1072; &#1074;&#1099;&#1073;&#1086;&#1088;&#1072; &#1088;&#1072;&#1079;&#1084;&#1077;&#1090;&#1086;&#1082;</text><line style="stroke:#181818;stroke-width:1.5;" x1="442.5" x2="714.5" y1="64.9688" y2="64.9688"/><rect fill="#FFFF00" height="47.9375" rx="12.5" ry="12.5" style="stroke:#181818;stroke-width:0.5;" width="225" x="330" y="119.4531"/><text fill="#000000" font-family="sans-serif" font-size="12" lengthAdjust="spacing" textLength="91" x="344.5" y="140.5918">&#1042;&#1080;&#1076; &#1082;&#1072;&#1088;&#1090;&#1086;&#1095;&#1077;&#1082;</text><text fill="#000000" font-family="sans-serif" font-size="12" font-weight="bold" lengthAdjust="spacing" textLength="97" x="439.5" y="140.5918">&#1085;&#1077; &#1085;&#1072;&#1089;&#1083;&#1077;&#1076;&#1091;&#1077;&#1090;</text><text fill="#000000" font-family="sans-serif" font-size="12" lengthAdjust="spacing" textLength="4" x="536.5" y="140.5918">&#160;</text><text fill="#000000" font-family="sans-serif" font-size="12" lengthAdjust="spacing" textLength="205" x="340" y="154.5605">&#1088;&#1072;&#1079;&#1084;&#1077;&#1090;&#1082;&#1080; &#1088;&#1086;&#1076;&#1080;&#1090;&#1077;&#1083;&#1100;&#1089;&#1082;&#1086;&#1075;&#1086; &#1074;&#1080;&#1076;&#1072;</text><rect fill="#FFFF00" height="47.9375" rx="12.5" ry="12.5" style="stroke:#181818;stroke-width:0.5;" width="263" x="583" y="84.9688"/><text fill="#000000" font-family="sans-serif" font-size="12" lengthAdjust="spacing" textLength="91" x="593" y="106.1074">&#1042;&#1080;&#1076; &#1082;&#1072;&#1088;&#1090;&#1086;&#1095;&#1077;&#1082;</text><text fill="#000000" font-family="sans-serif" font-size="12" font-weight="bold" lengthAdjust="spacing" textLength="76" x="688" y="106.1074">&#1085;&#1072;&#1089;&#1083;&#1077;&#1076;&#1091;&#1077;&#1090;</text><text fill="#000000" font-family="sans-serif" font-size="12" lengthAdjust="spacing" textLength="64" x="768" y="106.1074">&#1088;&#1072;&#1079;&#1084;&#1077;&#1090;&#1082;&#1080;</text><text fill="#000000" font-family="sans-serif" font-size="12" lengthAdjust="spacing" textLength="137" x="646" y="120.0762">&#1088;&#1086;&#1076;&#1080;&#1090;&#1077;&#1083;&#1100;&#1089;&#1082;&#1086;&#1075;&#1086; &#1074;&#1080;&#1076;&#1072;</text><rect fill="#FFFF00" height="33.9688" rx="12.5" ry="12.5" style="stroke:#181818;stroke-width:0.5;" width="234" x="597.5" y="167.9063"/><text fill="#000000" font-family="sans-serif" font-size="12" lengthAdjust="spacing" textLength="214" x="607.5" y="189.0449">&#1048;&#1089;&#1087;&#1086;&#1083;&#1100;&#1079;&#1091;&#1102;&#1090;&#1089;&#1103; &#1076;&#1072;&#1085;&#1085;&#1099;&#1077; &#1088;&#1072;&#1079;&#1084;&#1077;&#1090;&#1082;&#1080;</text><line style="stroke:#181818;stroke-width:1.5;" x1="442.5" x2="714.5" y1="221.875" y2="221.875"/><line style="stroke:#181818;stroke-width:1.5;" x1="276.5" x2="881.5" y1="241.875" y2="241.875"/><rect fill="#FFA500" height="33.9688" rx="12.5" ry="12.5" style="stroke:#181818;stroke-width:0.5;" width="209" x="172" y="261.875"/><text fill="#000000" font-family="sans-serif" font-size="12" font-weight="bold" lengthAdjust="spacing" textLength="30" x="182" y="283.0137">&#1045;&#1089;&#1090;&#1100;</text><text fill="#000000" font-family="sans-serif" font-size="12" lengthAdjust="spacing" textLength="155" x="216" y="283.0137">&#1089;&#1086;&#1073;&#1089;&#1090;&#1074;&#1077;&#1085;&#1085;&#1099;&#1077; &#1088;&#1072;&#1079;&#1084;&#1077;&#1090;&#1082;&#1080;</text><line style="stroke:#181818;stroke-width:1.5;" x1="136" x2="415.5" y1="315.8438" y2="315.8438"/><rect fill="#90EE90" height="61.9063" rx="12.5" ry="12.5" style="stroke:#181818;stroke-width:0.5;" width="147" x="62.5" y="335.8438"/><text fill="#000000" font-family="sans-serif" font-size="12" lengthAdjust="spacing" textLength="103" x="82.5" y="356.9824">&#1045;&#1089;&#1090;&#1100; &#1088;&#1072;&#1079;&#1084;&#1077;&#1090;&#1082;&#1080;,</text><text fill="#000000" font-family="sans-serif" font-size="12" lengthAdjust="spacing" textLength="123" x="72.5" y="370.9512">&#1089;&#1086;&#1086;&#1090;&#1074;&#1077;&#1090;&#1089;&#1090;&#1074;&#1091;&#1102;&#1097;&#1080;&#1077;</text><text fill="#000000" font-family="sans-serif" font-size="12" lengthAdjust="spacing" textLength="111" x="80.5" y="384.9199">&#1091;&#1089;&#1083;&#1086;&#1074;&#1080;&#1103;&#1084; &#1074;&#1099;&#1073;&#1086;&#1088;&#1072;</text><rect fill="#008000" height="33.9688" rx="12.5" ry="12.5" style="stroke:#181818;stroke-width:0.5;" width="250" x="11" y="417.75"/><text fill="#000000" font-family="sans-serif" font-size="12" font-weight="bold" lengthAdjust="spacing" textLength="230" x="21" y="438.8887">&#1048;&#1089;&#1087;&#1086;&#1083;&#1100;&#1079;&#1091;&#1102;&#1090;&#1089;&#1103; &#1076;&#1072;&#1085;&#1085;&#1099;&#1077; &#1088;&#1072;&#1079;&#1084;&#1077;&#1090;&#1082;&#1080;</text><rect fill="#FFC0CB" height="61.9063" rx="12.5" ry="12.5" style="stroke:#181818;stroke-width:0.5;" width="145" x="343" y="335.8438"/><text fill="#000000" font-family="sans-serif" font-size="12" lengthAdjust="spacing" textLength="98" x="364.5" y="356.9824">&#1053;&#1077;&#1090; &#1088;&#1072;&#1079;&#1084;&#1077;&#1090;&#1086;&#1082;,</text><text fill="#000000" font-family="sans-serif" font-size="12" lengthAdjust="spacing" textLength="121" x="353" y="370.9512">&#1089;&#1086;&#1086;&#1090;&#1074;&#1077;&#1090;&#1089;&#1090;&#1074;&#1091;&#1102;&#1097;&#1080;&#1093;</text><text fill="#000000" font-family="sans-serif" font-size="12" lengthAdjust="spacing" textLength="111" x="360" y="384.9199">&#1091;&#1089;&#1083;&#1086;&#1074;&#1080;&#1103;&#1084; &#1074;&#1099;&#1073;&#1086;&#1088;&#1072;</text><rect fill="#FF0000" height="33.9688" rx="12.5" ry="12.5" style="stroke:#181818;stroke-width:0.5;" width="253" x="289" y="417.75"/><text fill="#000000" font-family="sans-serif" font-size="12" font-weight="bold" lengthAdjust="spacing" textLength="233" x="299" y="438.8887">&#1054;&#1090;&#1082;&#1088;&#1099;&#1090;&#1080;&#1077; &#1082;&#1072;&#1088;&#1090;&#1086;&#1095;&#1082;&#1080; &#1085;&#1077;&#1074;&#1086;&#1079;&#1084;&#1086;&#1078;&#1085;&#1086;</text><rect fill="#FFA500" height="33.9688" rx="12.5" ry="12.5" style="stroke:#181818;stroke-width:0.5;" width="203" x="780" y="261.875"/><text fill="#000000" font-family="sans-serif" font-size="12" font-weight="bold" lengthAdjust="spacing" textLength="26" x="790" y="283.0137">&#1053;&#1077;&#1090;</text><text fill="#000000" font-family="sans-serif" font-size="12" lengthAdjust="spacing" textLength="153" x="820" y="283.0137">&#1089;&#1086;&#1073;&#1089;&#1090;&#1074;&#1077;&#1085;&#1085;&#1099;&#1093; &#1088;&#1072;&#1079;&#1084;&#1077;&#1090;&#1086;&#1082;</text><line style="stroke:#181818;stroke-width:1.5;" x1="724.5" x2="1022" y1="315.8438" y2="315.8438"/><rect fill="#FFC0CB" height="61.9063" rx="12.5" ry="12.5" style="stroke:#181818;stroke-width:0.5;" width="225" x="612" y="335.8438"/><text fill="#000000" font-family="sans-serif" font-size="12" lengthAdjust="spacing" textLength="201" x="622" y="356.9824">&#1053;&#1077;&#1090; &#1088;&#1072;&#1079;&#1084;&#1077;&#1090;&#1086;&#1082; &#1090;&#1080;&#1087;&#1072; &#1082;&#1072;&#1088;&#1090;&#1086;&#1095;&#1077;&#1082;,</text><text fill="#000000" font-family="sans-serif" font-size="12" lengthAdjust="spacing" textLength="121" x="662" y="370.9512">&#1089;&#1086;&#1086;&#1090;&#1074;&#1077;&#1090;&#1089;&#1090;&#1074;&#1091;&#1102;&#1097;&#1080;&#1093;</text><text fill="#000000" font-family="sans-serif" font-size="12" lengthAdjust="spacing" textLength="111" x="669" y="384.9199">&#1091;&#1089;&#1083;&#1086;&#1074;&#1080;&#1103;&#1084; &#1074;&#1099;&#1073;&#1086;&#1088;&#1072;</text><rect fill="#FF0000" height="33.9688" rx="12.5" ry="12.5" style="stroke:#181818;stroke-width:0.5;" width="253" x="598" y="417.75"/><text fill="#000000" font-family="sans-serif" font-size="12" font-weight="bold" lengthAdjust="spacing" textLength="233" x="608" y="438.8887">&#1054;&#1090;&#1082;&#1088;&#1099;&#1090;&#1080;&#1077; &#1082;&#1072;&#1088;&#1090;&#1086;&#1095;&#1082;&#1080; &#1085;&#1077;&#1074;&#1086;&#1079;&#1084;&#1086;&#1078;&#1085;&#1086;</text><rect fill="#90EE90" height="61.9063" rx="12.5" ry="12.5" style="stroke:#181818;stroke-width:0.5;" width="230" x="907" y="335.8438"/><text fill="#000000" font-family="sans-serif" font-size="12" lengthAdjust="spacing" textLength="206" x="917" y="356.9824">&#1045;&#1089;&#1090;&#1100; &#1088;&#1072;&#1079;&#1084;&#1077;&#1090;&#1082;&#1080; &#1090;&#1080;&#1087;&#1072; &#1082;&#1072;&#1088;&#1090;&#1086;&#1095;&#1077;&#1082;,</text><text fill="#000000" font-family="sans-serif" font-size="12" lengthAdjust="spacing" textLength="123" x="958.5" y="370.9512">&#1089;&#1086;&#1086;&#1090;&#1074;&#1077;&#1090;&#1089;&#1090;&#1074;&#1091;&#1102;&#1097;&#1080;&#1077;</text><text fill="#000000" font-family="sans-serif" font-size="12" lengthAdjust="spacing" textLength="111" x="966.5" y="384.9199">&#1091;&#1089;&#1083;&#1086;&#1074;&#1080;&#1103;&#1084; &#1074;&#1099;&#1073;&#1086;&#1088;&#1072;</text><rect fill="#008000" height="33.9688" rx="12.5" ry="12.5" style="stroke:#181818;stroke-width:0.5;" width="286" x="879" y="417.75"/><text fill="#000000" font-family="sans-serif" font-size="12" font-weight="bold" lengthAdjust="spacing" textLength="266" x="889" y="438.8887">&#1048;&#1089;&#1087;&#1086;&#1083;&#1100;&#1079;&#1091;&#1102;&#1090;&#1089;&#1103; &#1076;&#1072;&#1085;&#1085;&#1099;&#1077; &#1088;&#1072;&#1079;&#1084;&#1077;&#1090;&#1082;&#1080; &#1090;&#1080;&#1087;&#1072;</text><line style="stroke:#181818;stroke-width:1.0;" x1="714.5" x2="714.5" y1="132.9063" y2="167.9063"/><polygon fill="#181818" points="710.5,157.9063,714.5,167.9063,718.5,157.9063,714.5,161.9063" style="stroke:#181818;stroke-width:1.0;"/><line style="stroke:#181818;stroke-width:1.0;" x1="442.5" x2="442.5" y1="66.4688" y2="119.4531"/><polygon fill="#181818" points="438.5,109.4531,442.5,119.4531,446.5,109.4531,442.5,113.4531" style="stroke:#181818;stroke-width:1.0;"/><line style="stroke:#181818;stroke-width:1.0;" x1="714.5" x2="714.5" y1="66.4688" y2="84.9688"/><polygon fill="#181818" points="710.5,74.9688,714.5,84.9688,718.5,74.9688,714.5,78.9688" style="stroke:#181818;stroke-width:1.0;"/><line style="stroke:#181818;stroke-width:1.0;" x1="442.5" x2="442.5" y1="167.3906" y2="221.875"/><polygon fill="#181818" points="438.5,211.875,442.5,221.875,446.5,211.875,442.5,215.875" style="stroke:#181818;stroke-width:1.0;"/><line style="stroke:#181818;stroke-width:1.0;" x1="714.5" x2="714.5" y1="201.875" y2="221.875"/><polygon fill="#181818" points="710.5,211.875,714.5,221.875,718.5,211.875,714.5,215.875" style="stroke:#181818;stroke-width:1.0;"/><line style="stroke:#181818;stroke-width:1.0;" x1="588" x2="588" y1="44.9688" y2="64.9688"/><polygon fill="#181818" points="584,54.9688,588,64.9688,592,54.9688,588,58.9688" style="stroke:#181818;stroke-width:1.0;"/><line style="stroke:#181818;stroke-width:1.0;" x1="136" x2="136" y1="397.75" y2="417.75"/><polygon fill="#181818" points="132,407.75,136,417.75,140,407.75,136,411.75" style="stroke:#181818;stroke-width:1.0;"/><line style="stroke:#181818;stroke-width:1.0;" x1="415.5" x2="415.5" y1="397.75" y2="417.75"/><polygon fill="#181818" points="411.5,407.75,415.5,417.75,419.5,407.75,415.5,411.75" style="stroke:#181818;stroke-width:1.0;"/><line style="stroke:#181818;stroke-width:1.0;" x1="136" x2="136" y1="317.3438" y2="335.8438"/><polygon fill="#181818" points="132,325.8438,136,335.8438,140,325.8438,136,329.8438" style="stroke:#181818;stroke-width:1.0;"/><line style="stroke:#181818;stroke-width:1.0;" x1="415.5" x2="415.5" y1="317.3438" y2="335.8438"/><polygon fill="#181818" points="411.5,325.8438,415.5,335.8438,419.5,325.8438,415.5,329.8438" style="stroke:#181818;stroke-width:1.0;"/><line style="stroke:#181818;stroke-width:1.0;" x1="276.5" x2="276.5" y1="295.8438" y2="315.8438"/><polygon fill="#181818" points="272.5,305.8438,276.5,315.8438,280.5,305.8438,276.5,309.8438" style="stroke:#181818;stroke-width:1.0;"/><line style="stroke:#181818;stroke-width:1.0;" x1="724.5" x2="724.5" y1="397.75" y2="417.75"/><polygon fill="#181818" points="720.5,407.75,724.5,417.75,728.5,407.75,724.5,411.75" style="stroke:#181818;stroke-width:1.0;"/><line style="stroke:#181818;stroke-width:1.0;" x1="1022" x2="1022" y1="397.75" y2="417.75"/><polygon fill="#181818" points="1018,407.75,1022,417.75,1026,407.75,1022,411.75" style="stroke:#181818;stroke-width:1.0;"/><line style="stroke:#181818;stroke-width:1.0;" x1="724.5" x2="724.5" y1="317.3438" y2="335.8438"/><polygon fill="#181818" points="720.5,325.8438,724.5,335.8438,728.5,325.8438,724.5,329.8438" style="stroke:#181818;stroke-width:1.0;"/><line style="stroke:#181818;stroke-width:1.0;" x1="1022" x2="1022" y1="317.3438" y2="335.8438"/><polygon fill="#181818" points="1018,325.8438,1022,335.8438,1026,325.8438,1022,329.8438" style="stroke:#181818;stroke-width:1.0;"/><line style="stroke:#181818;stroke-width:1.0;" x1="881.5" x2="881.5" y1="295.8438" y2="315.8438"/><polygon fill="#181818" points="877.5,305.8438,881.5,315.8438,885.5,305.8438,881.5,309.8438" style="stroke:#181818;stroke-width:1.0;"/><line style="stroke:#181818;stroke-width:1.0;" x1="276.5" x2="276.5" y1="243.375" y2="261.875"/><polygon fill="#181818" points="272.5,251.875,276.5,261.875,280.5,251.875,276.5,255.875" style="stroke:#181818;stroke-width:1.0;"/><line style="stroke:#181818;stroke-width:1.0;" x1="881.5" x2="881.5" y1="243.375" y2="261.875"/><polygon fill="#181818" points="877.5,251.875,881.5,261.875,885.5,251.875,881.5,255.875" style="stroke:#181818;stroke-width:1.0;"/><line style="stroke:#181818;stroke-width:1.0;" x1="588" x2="588" y1="223.375" y2="241.875"/><polygon fill="#181818" points="584,231.875,588,241.875,592,231.875,588,235.875" style="stroke:#181818;stroke-width:1.0;"/><!--SRC=[hLJBJi905Dtp5PEmQ_o2kl8VNBffO8I6Cf1Ie-nun1W3aSJ4n0tw2mLR8GM6NxZpHzux3PHIdeOkIcUuS-uvf-UsKR55tNAjAYloU-l1yMxvatVZs2LHvS9Z1RnnDvV7ZR9NSgsc2T-g1JwCOGepy1cCLGz686cJwNycC8TGTK12T9rZU3NgZktfftoJEqxjqOHtF1qmYC1NBIfLBn12n0m35X0olFcgZV0X1AfBO8R1xaGAFO8fjPCGm1IN8SnK7yz4kFC3acb-0VWR39XLicnnEeyiXGm1pUaq2kkMdrYon18iXedggZVLKMqrO5IANHTePvZf56DmKTmmSyFMcck94ZUHzWTYTLIVoBQnoOYMI2GyWfp6qzVgbNCkp1LivlGLMK2DPDn6Qy4dhUiLzOTKqDLEIZ943M2UoapIFn_tGX7_iiWm4gWYzwn2EQriu_NhRdLRL4mOql5CRe_9Kizdo79vaKHz4KrCMGz_oPTKw2XC57t4afg8X5zSomEYaZ0SrfbaOxYAyOvaeABTmxid7SSSP5hbaZuGMyDrIMylwkyEZ_UPUlg0_D-7SqRd0kEp9hfjIVgZawnYg_u0]--></g></svg>